# Blender v2.90.0 OBJ File: 'FoodCourtFurnitures.blend'
# www.blender.org
mtllib WoodenChair_Col.mtl
o WoodenChair_Col
v 0.182233 -0.181280 0.000000
v 0.169846 -0.181280 0.425376
v -0.186045 -0.181280 0.000000
v -0.185092 -0.181280 0.434457
v 0.182233 0.183186 0.000000
v 0.169846 0.183186 0.425376
v -0.186045 0.183186 0.000000
v -0.185092 0.183186 0.434457
v -0.153122 -0.181280 0.785994
v -0.119501 -0.181280 0.432779
v -0.218713 -0.181280 0.787672
v -0.119501 0.183186 0.432779
v -0.218713 0.183186 0.787672
v -0.153122 0.183186 0.785994
vt 0.375000 0.203801
vt 0.625000 0.203801
vt 0.625000 0.250000
vt 0.375000 0.250000
vt 0.625000 0.500000
vt 0.375000 0.500000
vt 0.375000 0.546199
vt 0.625000 0.546199
vt 0.625000 0.750000
vt 0.375000 0.750000
vt 0.625000 1.000000
vt 0.375000 1.000000
vt 0.125000 0.546199
vt 0.125000 0.750000
vt 0.875000 0.546199
vt 0.875000 0.750000
vt 0.625000 0.500000
vt 0.625000 0.546199
vt 0.875000 0.500000
vt 0.875000 0.546199
vt 0.375000 0.000000
vt 0.625000 0.000000
vt 0.625000 0.203801
vt 0.625000 0.250000
vn 0.0000 -1.0000 -0.0000
vn -1.0000 0.0000 0.0022
vn 0.0000 1.0000 0.0000
vn 0.9996 0.0000 0.0291
vn 0.0000 0.0000 -1.0000
vn 0.0256 0.0000 0.9997
vn -0.9955 0.0000 -0.0948
vn 0.9955 0.0000 0.0948
usemtl None
s off
f 3/1/1 10/2/1 4/3/1
f 3/4/2 4/3/2 8/5/2 7/6/2
f 7/7/3 12/8/3 6/9/3 5/10/3
f 5/10/4 6/9/4 2/11/4 1/12/4
f 3/13/5 7/7/5 5/10/5 1/14/5
f 12/8/6 10/15/6 2/16/6 6/9/6
f 12/8/3 8/5/3 13/17/3 14/18/3
f 13/17/6 11/19/6 9/20/6 14/18/6
f 7/6/3 8/5/3 12/8/3
f 1/21/1 2/22/1 10/2/1 3/1/1
f 4/3/1 10/2/1 9/23/1 11/24/1
f 8/5/7 4/3/7 11/24/7 13/17/7
f 10/15/8 12/8/8 14/18/8 9/20/8
